<?xml version="1.0" encoding="UTF-8"?>
<svg id="Layer_1" xmlns="http://www.w3.org/2000/svg" viewBox="0 0 2000 497.22">
  <defs>
    <style>
      .cls-1 {
        fill: #05f4f9;
      }

      .cls-2 {
        fill: #8400ff;
      }
    </style>
  </defs>
  <g>
    <path class="cls-1" d="M773.7,225.41c-3.53-5.9-8.37-10.74-14.38-14.37-5.95-3.6-12.62-5.43-19.83-5.43h-102.09v-58.72h-34.14v231.68h136.23c7.22,0,13.88-1.82,19.83-5.42,6.01-3.64,10.84-8.47,14.38-14.37,3.5-5.85,5.26-12.47,5.26-19.71v-93.97c0-7.23-1.77-13.87-5.26-19.71ZM744.83,337.54c0,1.86-.69,3.55-2.01,4.87-1.32,1.32-3.01,2.02-4.88,2.02h-93.66c-1.87,0-3.56-.7-4.88-2.02-1.32-1.32-2.02-3.01-2.02-4.87v-90.88c0-1.87.7-3.56,2.02-4.88,1.32-1.32,3.01-2.02,4.88-2.02h93.66c1.87,0,3.56.7,4.88,2.02s2.01,3.01,2.01,4.88v90.88Z"/>
    <path class="cls-1" d="M849.55,344.4c-1.87,0-3.56-.7-4.88-2.02-1.32-1.32-2.02-3-2.02-4.87v-28.21h141.57v-64.2c0-7.22-1.77-13.86-5.26-19.71-3.52-5.9-8.37-10.73-14.37-14.37-5.95-3.6-12.62-5.42-19.83-5.42h-96.76c-7.21,0-13.82,1.82-19.67,5.4-5.92,3.65-10.77,8.49-14.42,14.42-3.64,5.95-5.4,12.38-5.4,19.67v93.97c0,7.21,1.82,13.83,5.4,19.68,3.37,5.47,7.76,10.02,13.07,13.54l1.36.85c5.85,3.59,12.47,5.4,19.68,5.4h136.23v-34.14h-134.69ZM842.64,246.63c0-1.87.7-3.55,2.01-4.87,1.33-1.32,3.01-2.02,4.88-2.02h93.66c1.87,0,3.56.7,4.88,2.02,1.32,1.32,2.02,3,2.02,4.87v32.56h-107.46v-32.56Z"/>
    <path class="cls-2" d="M1205.41,216.28v-12.28c0-1.92-.79-3.65-2.31-5.02-1.4-1.22-3.09-1.88-4.88-1.88h-132.92c-1.87,0-3.56.7-4.88,2.02-1.32,1.32-2.02,3.01-2.02,4.88v132.92c0,1.87.7,3.55,2.02,4.87,1.32,1.32,3.01,2.02,4.88,2.02h132.92c1.79,0,3.48-.65,4.88-1.88,1.51-1.32,2.31-3.06,2.31-5.01v-43.37h-50.38v-34.76h85.14v79.98c0,7.21-1.83,13.88-5.42,19.83-3.64,6.01-8.57,10.91-14.67,14.53-6.15,3.65-12.7,5.43-20.01,5.43h-136.32c-7.21-.01-13.88-1.84-19.83-5.44-6.04-3.64-10.92-8.53-14.54-14.53-3.6-5.96-5.42-12.64-5.42-19.85v-136.61c0-7.21,1.82-13.88,5.42-19.83,3.65-6.04,8.54-10.93,14.54-14.54,5.95-3.6,12.62-5.42,19.83-5.42h136.32c7.31,0,13.86,1.77,20.01,5.43,6.12,3.64,11.05,8.52,14.67,14.53,3.59,5.95,5.42,12.62,5.42,19.83v14.14h-34.76Z"/>
    <path class="cls-2" d="M1490.72,182.31c-3.62-6.01-8.52-10.9-14.54-14.54-5.95-3.6-12.62-5.42-19.83-5.42h-136.65c-7.21,0-13.87,1.82-19.83,5.42-6,3.61-10.88,8.51-14.53,14.54-3.6,5.95-5.43,12.62-5.43,19.83v136.61c0,7.21,1.83,13.88,5.43,19.85,3.61,6,8.51,10.9,14.53,14.53,5.96,3.6,12.62,5.43,19.83,5.43h3.18s133.47.01,133.47.01c7.21,0,13.88-1.82,19.83-5.42,6-3.62,10.9-8.51,14.54-14.54,3.6-5.95,5.42-12.62,5.42-19.83v-136.63c0-7.21-1.82-13.88-5.42-19.83ZM1461.37,336.9c0,1.96-.8,3.69-2.31,5.02-1.4,1.23-3.09,1.88-4.88,1.88h-132.92c-1.87,0-3.56-.7-4.88-2.02-1.32-1.32-2.02-3.01-2.02-4.88v-132.92c0-1.86.7-3.55,2.02-4.87,1.32-1.32,3.01-2.02,4.88-2.02h132.92c1.79,0,3.48.65,4.88,1.88,1.53,1.37,2.31,3.09,2.31,5.01v132.92Z"/>
    <path class="cls-2" d="M1747.89,182.31c-3.61-6.01-8.54-10.9-14.66-14.53-6.17-3.66-12.71-5.43-20.02-5.43h-136.32c-7.21,0-13.87,1.82-19.83,5.42-6,3.61-10.9,8.51-14.53,14.54-3.6,5.95-5.43,12.62-5.43,19.83v176.41s34.44,0,34.44,0v-74.82h147.02v74.82h34.75v-176.41c0-7.21-1.82-13.88-5.42-19.83ZM1718.55,269.31h-147.01v-65.31c0-1.87.7-3.56,2.02-4.88,1.32-1.32,3-2.02,4.87-2.02h132.92c1.79,0,3.48.66,4.89,1.88,1.51,1.37,2.3,3.1,2.3,5.02v65.31Z"/>
    <polygon class="cls-2" points="2000 162.35 2000 197.1 1909.43 197.1 1909.43 378.56 1874.67 378.56 1874.67 197.1 1783.79 197.1 1783.79 162.35 2000 162.35"/>
  </g>
  <g>
    <path class="cls-2" d="M324.3,259.07c-44.26,33-90.03,67.13-107.99,153.12l-3.11,14.9-3.11-14.9c-17.96-86-63.73-120.12-107.99-153.12C44.22,215.93-10.44,175.18,1.71,27.98L4.02,0l4,27.79c19.87,137.97,83.69,166.47,134.98,189.38,30.41,13.58,56.97,25.44,70.29,55.41,17.32-37.81,47.35-50.82,79.02-64.52,50.04-21.66,106.74-46.23,126.06-180.27l4-27.79,2.31,27.98c12.14,147.2-42.51,187.95-100.39,231.08Z"/>
    <g>
      <path class="cls-2" d="M169.73,479.62c0,5.97-.41,11.85-1.22,17.6-50.57-29.78-87.1-80.85-97.27-140.89-1.8-10.62-2.77-21.52-2.85-32.63,13.24,20.98,30.22,39.37,50,54.23.33.25.66.49.99.74,30.58,23.07,50.34,59.7,50.34,100.95Z"/>
      <path class="cls-2" d="M256.66,479.62c0,5.97.41,11.85,1.22,17.6,50.57-29.78,87.1-80.85,97.27-140.89,1.8-10.62,2.77-21.52,2.85-32.63-13.24,20.98-30.22,39.37-50,54.23-.33.25-.66.49-.99.74-30.58,23.07-50.34,59.7-50.34,100.95Z"/>
    </g>
  </g>
</svg>