<svg width="265" height="66" viewBox="0 0 265 66" fill="none" xmlns="http://www.w3.org/2000/svg">
<g clip-path="url(#clip0_296_26370)">
<path d="M102.515 29.9206C102.048 29.1375 101.406 28.495 100.61 28.0132C99.8215 27.5353 98.9377 27.2924 97.9824 27.2924H84.4555V19.498H79.9319V50.2508H97.9824C98.9391 50.2508 99.8215 50.0092 100.61 49.5314C101.406 49.0482 102.046 48.4071 102.515 47.6239C102.979 46.8474 103.212 45.9687 103.212 45.0076V32.5342C103.212 31.5746 102.978 30.6932 102.515 29.918V29.9206ZM98.69 44.8046C98.69 45.0514 98.5985 45.2758 98.4236 45.451C98.2487 45.6262 98.0248 45.7191 97.777 45.7191H85.3671C85.1193 45.7191 84.8954 45.6262 84.7205 45.451C84.5456 45.2758 84.4528 45.0514 84.4528 44.8046V32.7413C84.4528 32.4931 84.5456 32.2688 84.7205 32.0936C84.8954 31.9183 85.1193 31.8254 85.3671 31.8254H97.777C98.0248 31.8254 98.2487 31.9183 98.4236 32.0936C98.5985 32.2688 98.69 32.4931 98.69 32.7413V44.8046Z" fill="white"/>
<path d="M112.565 45.7151C112.318 45.7151 112.094 45.6221 111.919 45.4469C111.744 45.2717 111.651 45.0487 111.651 44.8005V41.0559H130.409V32.5342C130.409 31.5758 130.175 30.6944 129.712 29.9179C129.246 29.1347 128.603 28.4936 127.808 28.0105C127.02 27.5326 126.136 27.291 125.181 27.291H112.36C111.405 27.291 110.529 27.5326 109.754 28.0078C108.969 28.4923 108.327 29.1347 107.843 29.9219C107.361 30.7117 107.128 31.5652 107.128 32.5328V45.0062C107.128 45.9633 107.369 46.842 107.843 47.6185C108.29 48.3446 108.871 48.9486 109.575 49.4158L109.755 49.5286C110.53 50.0051 111.407 50.2454 112.363 50.2454H130.413V45.7137H112.567L112.565 45.7151ZM111.65 32.7373C111.65 32.489 111.743 32.266 111.916 32.0908C112.092 31.9156 112.315 31.8227 112.563 31.8227H124.973C125.22 31.8227 125.444 31.9156 125.619 32.0908C125.794 32.266 125.887 32.489 125.887 32.7373V37.0592H111.648V32.7373H111.65Z" fill="white"/>
<path d="M159.717 28.7087V27.0787C159.717 26.8238 159.612 26.5942 159.411 26.4123C159.225 26.2504 159.001 26.1628 158.764 26.1628H141.152C140.904 26.1628 140.681 26.2557 140.506 26.4309C140.331 26.6061 140.238 26.8305 140.238 27.0787V44.7222C140.238 44.9705 140.331 45.1935 140.506 45.3687C140.681 45.5439 140.904 45.6368 141.152 45.6368H158.764C159.001 45.6368 159.225 45.5505 159.411 45.3872C159.611 45.212 159.717 44.9811 159.717 44.7222V38.9654H153.041V34.3514H164.323V44.9678C164.323 45.9248 164.08 46.8102 163.604 47.6C163.122 48.3977 162.469 49.0482 161.661 49.5287C160.846 50.0132 159.978 50.2494 159.009 50.2494H140.947C139.992 50.2481 139.108 50.0052 138.319 49.5273C137.519 49.0442 136.872 48.3951 136.393 47.5987C135.916 46.8075 135.675 45.9209 135.675 44.9638V26.8305C135.675 25.8734 135.916 24.9881 136.393 24.1983C136.876 23.3965 137.524 22.7475 138.319 22.2683C139.108 21.7904 139.992 21.5488 140.947 21.5488H159.009C159.978 21.5488 160.846 21.7838 161.661 22.2696C162.471 22.7528 163.125 23.4005 163.604 24.1983C164.08 24.9881 164.323 25.8734 164.323 26.8305V28.7074H159.717V28.7087Z" fill="white"/>
<path d="M197.52 24.1993C197.041 23.4015 196.392 22.7524 195.594 22.2692C194.805 21.7914 193.922 21.5498 192.966 21.5498H174.86C173.905 21.5498 173.022 21.7914 172.233 22.2692C171.438 22.7484 170.791 23.3988 170.308 24.1993C169.831 24.989 169.588 25.8744 169.588 26.8314V44.9648C169.588 45.9218 169.831 46.8072 170.308 47.5996C170.786 48.3961 171.435 49.0465 172.233 49.5283C173.022 50.0062 173.905 50.2491 174.86 50.2491H175.282L192.966 50.2504C193.922 50.2504 194.805 50.0088 195.594 49.531C196.389 49.0505 197.038 48.4014 197.52 47.601C197.997 46.8112 198.239 45.9258 198.239 44.9688V26.8328C198.239 25.8757 197.997 24.9904 197.52 24.2006V24.1993ZM193.632 44.7192C193.632 44.9794 193.526 45.209 193.325 45.3856C193.14 45.5488 192.916 45.6351 192.679 45.6351H175.067C174.819 45.6351 174.595 45.5422 174.42 45.367C174.245 45.1918 174.153 44.9674 174.153 44.7192V27.0757C174.153 26.8288 174.245 26.6045 174.42 26.4293C174.595 26.254 174.819 26.1611 175.067 26.1611H192.679C192.916 26.1611 193.14 26.2474 193.325 26.4107C193.528 26.5925 193.632 26.8208 193.632 27.0757V44.7192Z" fill="white"/>
<path d="M231.595 24.1993C231.117 23.4015 230.464 22.7524 229.653 22.2706C228.835 21.7847 227.969 21.5498 227 21.5498H208.938C207.983 21.5498 207.1 21.7914 206.31 22.2692C205.515 22.7484 204.866 23.3988 204.385 24.1993C203.908 24.989 203.666 25.8744 203.666 26.8314V50.2478H208.229V40.3163H227.709V50.2478H232.314V26.8314C232.314 25.8744 232.072 24.989 231.595 24.1993ZM227.708 35.7475H208.229V27.0783C208.229 26.8301 208.322 26.6058 208.497 26.4306C208.672 26.2554 208.894 26.1625 209.142 26.1625H226.754C226.991 26.1625 227.215 26.2501 227.402 26.412C227.602 26.5938 227.707 26.8235 227.707 27.0783V35.7475H227.708Z" fill="white"/>
<path d="M265 21.5498V26.1625H252.999V50.2491H248.394V26.1625H236.352V21.5498H265Z" fill="white"/>
<path d="M42.9698 34.3884C37.1054 38.7688 31.0408 43.2991 28.6611 54.7133L28.2491 56.6911L27.837 54.7133C25.4573 43.2978 19.3928 38.7688 13.5283 34.3884C5.8592 28.6621 -1.38324 23.253 0.22663 3.71401L0.532705 0L1.06271 3.68879C3.69548 22.0027 12.1516 25.7857 18.9476 28.8267C22.9769 30.6293 26.4961 32.2036 28.261 36.1817C30.5559 31.1629 34.5349 29.436 38.7311 27.6175C45.3614 24.7424 52.8742 21.481 55.4341 3.68879L55.9641 0L56.2702 3.71401C57.8787 23.253 50.6376 28.6621 42.9685 34.3871L42.9698 34.3884Z" fill="white"/>
<path d="M22.4892 63.6643C22.4892 64.4567 22.4349 65.2372 22.3276 66.0005C15.627 62.0475 10.7868 55.2686 9.4393 47.299C9.2008 45.8893 9.07228 44.4425 9.06168 42.9678C10.816 45.7526 13.0658 48.1937 15.6867 50.1662C15.7304 50.1993 15.7741 50.2312 15.8179 50.2644C19.8697 53.3266 22.4879 58.1888 22.4879 63.6643H22.4892Z" fill="white"/>
<path d="M34.0074 63.6643C34.0074 64.4567 34.0618 65.2372 34.1691 66.0005C40.8696 62.0475 45.7098 55.2686 47.0574 47.299C47.2959 45.8893 47.4244 44.4425 47.435 42.9678C45.6807 45.7526 43.4308 48.1937 40.81 50.1662C40.7663 50.1993 40.7225 50.2312 40.6788 50.2644C36.627 53.3266 34.0088 58.1888 34.0088 63.6643H34.0074Z" fill="white"/>
</g>
<defs>
<clipPath id="clip0_296_26370">
<rect width="265" height="66" fill="white"/>
</clipPath>
</defs>
</svg>
