<svg width="133" height="156" viewBox="0 0 133 156" fill="none" xmlns="http://www.w3.org/2000/svg">
<g clip-path="url(#clip0_284_26395)">
<path d="M101.155 81.2799C87.3507 91.6352 73.0745 102.341 67.471 129.321L66.4994 133.995L65.5277 129.321C59.9243 102.341 45.648 91.6344 31.844 81.2799C13.7929 67.7461 -3.25485 54.9619 0.531723 8.77968L1.25368 0L2.50294 8.71962C8.7012 52.0065 28.6088 60.9492 44.6058 68.1369C54.0912 72.3973 62.3755 76.1186 66.5319 85.52C71.933 73.657 81.2998 69.5768 91.1784 65.2766C106.787 58.4797 124.474 50.7733 130.497 8.71962L131.746 0L132.468 8.77968C136.255 54.9619 119.207 67.7461 101.155 81.2799H101.155Z" fill="#8400FF"/>
<path d="M52.943 150.477C52.943 152.351 52.8135 154.195 52.5631 156C36.7886 146.658 25.394 130.635 22.2239 111.798C21.6633 108.466 21.3601 105.047 21.3353 101.56C25.4646 108.143 30.7602 113.912 36.9313 118.573C37.0337 118.651 37.1376 118.728 37.2407 118.805C46.7773 126.042 52.943 137.536 52.943 150.478V150.477Z" fill="#8400FF"/>
<path d="M80.0578 150.477C80.0578 152.351 80.1873 154.195 80.4378 156C96.2122 146.658 107.607 130.635 110.777 111.798C111.338 108.466 111.641 105.047 111.666 101.56C107.536 108.143 102.241 113.912 96.0695 118.573C95.9671 118.651 95.8632 118.728 95.7601 118.805C86.2235 126.042 80.0578 137.536 80.0578 150.478V150.477Z" fill="#8400FF"/>
</g>
<defs>
<clipPath id="clip0_284_26395">
<rect width="133" height="156" fill="white"/>
</clipPath>
</defs>
</svg>
