<svg width="1692" height="1252" viewBox="0 0 1692 1252" fill="none" xmlns="http://www.w3.org/2000/svg">
<path d="M1689.71 49.801L1690 49.5081V49.0938V17.7344V17.3202L1689.71 17.0273L1678.18 5.50221L1677.89 5.20932H1677.47H1116.68L1112.77 1.29289L1112.47 1H1112.06H549.275H548.861L548.568 1.29289C547.993 1.8674 547.506 2.35376 547.044 2.81431C546.27 3.58712 545.568 4.28726 544.65 5.20932H13.3821H12.9679L12.675 5.50221L1.2929 16.8842L1 17.1771V17.5913V49.4474V49.8631L1.29471 50.1563C2.94357 51.7968 3.86001 52.7132 5.50045 54.362L7.20936 56.0797V53.6567V19.7482L15.539 11.4186H1675.32L1683.79 19.8914V53.3032V55.7L1685.49 54.0139C1686.05 53.4595 1686.53 52.9798 1686.98 52.5309C1687.19 52.3177 1687.4 52.1115 1687.6 51.9076C1688.02 51.4912 1688.44 51.069 1688.91 50.6027C1689.16 50.3504 1689.42 50.0851 1689.71 49.801Z" fill="#8400FF" stroke="#8400FF" stroke-width="2"/>
<path d="M1 1171.3V1173.72L2.7071 1172.01L4.81177 1169.9L6.91647 1167.8L7.20936 1167.51V1167.09V83.5428V83.1286L6.91647 82.8357L4.81178 80.731L2.7071 78.6264L1 76.9193V79.3335V1171.29V1171.3Z" fill="#8400FF" stroke="#8400FF" stroke-width="2"/>
<path d="M1688.5 1171.01L1690.21 1172.72V1170.3V1170.29V79.3335V76.9193L1688.5 78.6264L1686.4 80.731L1684.29 82.8357L1684 83.1286V83.5428V1166.09V1166.51L1684.29 1166.8L1686.4 1168.9L1688.5 1171.01Z" fill="#8400FF" stroke="#8400FF" stroke-width="2"/>
<path d="M1691 1202.56V1202.15L1690.71 1201.86C1690.42 1201.57 1690.16 1201.31 1689.91 1201.05C1689.44 1200.59 1689.02 1200.17 1688.6 1199.75C1688.4 1199.55 1688.19 1199.34 1687.98 1199.13C1687.53 1198.68 1687.05 1198.2 1686.49 1197.64L1684.79 1195.96V1198.35V1231.77L1676.32 1240.24H16.539L8.20936 1231.91V1198V1195.58L6.50045 1197.29C4.86001 1198.94 3.94357 1199.86 2.29471 1201.5L2 1201.79V1202.21V1234.07V1234.48L2.2929 1234.77L13.675 1246.15L13.9679 1246.45H14.3821H545.65C546.568 1247.37 547.27 1248.07 548.044 1248.84C548.506 1249.3 548.993 1249.79 549.568 1250.36L549.861 1250.66H550.275H1113.06H1113.47L1113.77 1250.36L1117.68 1246.45H1678.47H1678.89L1679.18 1246.15L1690.71 1234.63L1691 1234.34V1233.92V1202.56Z" fill="#8400FF" stroke="#8400FF" stroke-width="2"/>
</svg>
