<svg width="317" height="494" viewBox="0 0 317 494" fill="none" xmlns="http://www.w3.org/2000/svg">
<path d="M316.772 9.88375L316.802 9.85446V9.81304V3.94451V3.90309L316.772 3.8738L314.616 1.71701L314.586 1.68772H314.545H209.563L208.805 0.929289L208.775 0.9H208.734H103.416H103.374L103.345 0.929289C103.237 1.03704 103.146 1.12817 103.06 1.21444C102.908 1.36598 102.771 1.50251 102.587 1.68772H3.13003H3.0886L3.05932 1.71701L0.92929 3.84701L0.9 3.8763V3.91773V9.87921V9.92078L0.929471 9.9501C1.23814 10.2572 1.40975 10.4288 1.71684 10.7375L1.88773 10.9092V10.6669V4.28526L3.49757 2.67545H314.177L315.814 4.31204V10.6008V10.8404L315.984 10.6718C316.139 10.519 316.259 10.3971 316.378 10.2781C316.457 10.2001 316.536 10.1212 316.623 10.0338C316.67 9.98665 316.719 9.93704 316.772 9.88375Z" fill="#8400FF" stroke="#8400FF" stroke-width="0.2"/>
<path d="M316.772 484.783L316.802 484.813V484.854V490.722V490.764L316.772 490.793L314.616 492.95L314.586 492.979H314.545H209.563L208.805 493.738L208.775 493.767H208.734H103.416H103.374L103.345 493.738C103.237 493.63 103.146 493.539 103.06 493.453C102.908 493.301 102.771 493.164 102.587 492.979H3.13003H3.0886L3.05932 492.95L0.92929 490.82L0.9 490.791V490.749V484.788V484.746L0.929471 484.717C1.23814 484.41 1.40975 484.238 1.71684 483.93L1.88773 483.758V484V490.382L3.49757 491.992H314.177L315.814 490.355V484.066V483.827L315.984 483.995C316.139 484.148 316.259 484.27 316.378 484.389C316.457 484.467 316.536 484.546 316.623 484.633C316.67 484.68 316.719 484.73 316.772 484.783Z" fill="#8400FF" stroke="#8400FF" stroke-width="0.2"/>
<path d="M0.9 478.821V479.062L1.07071 478.891L1.46458 478.497L1.85844 478.104L1.88773 478.074V478.033V16.2596V16.2182L1.85844 16.1889L1.46458 15.7951L1.07071 15.4012L0.9 15.2305V15.4719V478.819V478.821Z" fill="#8400FF" stroke="#8400FF" stroke-width="0.2"/>
<path d="M316.67 478.704L316.841 478.875V478.633V478.632V15.4719V15.2305L316.67 15.4012L316.276 15.7951L315.882 16.1889L315.853 16.2182V16.2596V477.846V477.887L315.882 477.916L316.276 478.31L316.67 478.704Z" fill="#8400FF" stroke="#8400FF" stroke-width="0.2"/>
</svg>
