<svg width="1691" height="984" viewBox="0 0 1691 984" fill="none" xmlns="http://www.w3.org/2000/svg">
<path d="M1691 924.859V964.169L1676.55 978.616H1182.41C1180.34 980.684 1179.19 981.835 1177.13 983.893H471.669C469.611 981.835 468.45 980.684 466.392 978.616H14.2677L0 964.348V924.416C2.0684 922.358 3.21868 921.208 5.27653 919.14V962.164L16.4522 973.34H1674.37L1685.72 961.985V919.583C1686.76 920.607 1687.56 921.419 1688.36 922.221C1689.17 923.023 1689.98 923.836 1691 924.859Z" fill="#05F4F9"/>
<path d="M1691 59.0331V19.7234L1676.55 5.27647H1182.41C1180.34 3.20809 1179.19 2.05782 1177.13 0H471.669C469.611 2.05782 468.45 3.20809 466.392 5.27647H14.2677L0 19.544V59.4764C2.0684 61.5342 3.21868 62.6844 5.27653 64.7528V21.7285L16.4522 10.5529H1674.37L1685.72 21.9079V64.3096C1686.76 63.286 1687.56 62.4734 1688.36 61.6714C1689.17 60.8693 1689.98 60.0568 1691 59.0331Z" fill="#05F4F9"/>
<path d="M0 887.871C2.05785 885.813 3.21868 884.653 5.27653 882.595V102.216C3.21868 100.158 2.05785 98.997 0 96.9392V887.861V887.871Z" fill="#05F4F9"/>
<path d="M1691 887.871C1688.94 885.813 1687.78 884.653 1685.72 882.595V102.216C1687.78 100.158 1688.94 98.997 1691 96.9392V887.861V887.871Z" fill="#05F4F9"/>
</svg>
